<?xml version="1.0" encoding="UTF-8" standalone="no"?>
<!-- Created with Inkscape (http://www.inkscape.org/) -->
<svg
   xmlns:dc="http://purl.org/dc/elements/1.1/"
   xmlns:cc="http://creativecommons.org/ns#"
   xmlns:rdf="http://www.w3.org/1999/02/22-rdf-syntax-ns#"
   xmlns:svg="http://www.w3.org/2000/svg"
   xmlns="http://www.w3.org/2000/svg"
   xmlns:sodipodi="http://sodipodi.sourceforge.net/DTD/sodipodi-0.dtd"
   xmlns:inkscape="http://www.inkscape.org/namespaces/inkscape"
   id="svg2474"
   sodipodi:version="0.32"
   inkscape:version="0.46"
   width="1140.8199"
   height="986.73999"
   version="1.0"
   sodipodi:docname="kitchen knives.svg"
   inkscape:output_extension="org.inkscape.output.svg.inkscape">
  <metadata
     id="metadata2479">
    <rdf:RDF>
      <cc:Work
         rdf:about="">
        <dc:format>image/svg+xml</dc:format>
        <dc:type
           rdf:resource="http://purl.org/dc/dcmitype/StillImage" />
      </cc:Work>
    </rdf:RDF>
  </metadata>
  <defs
     id="defs2477">
    <inkscape:perspective
       sodipodi:type="inkscape:persp3d"
       inkscape:vp_x="0 : 526.18109 : 1"
       inkscape:vp_y="0 : 1000 : 0"
       inkscape:vp_z="744.09448 : 526.18109 : 1"
       inkscape:persp3d-origin="372.04724 : 350.78739 : 1"
       id="perspective2481" />
    <inkscape:perspective
       id="perspective4300"
       inkscape:persp3d-origin="372.04724 : 350.78739 : 1"
       inkscape:vp_z="744.09448 : 526.18109 : 1"
       inkscape:vp_y="0 : 1000 : 0"
       inkscape:vp_x="0 : 526.18109 : 1"
       sodipodi:type="inkscape:persp3d" />
    <inkscape:perspective
       id="perspective4429"
       inkscape:persp3d-origin="372.04724 : 350.78739 : 1"
       inkscape:vp_z="744.09448 : 526.18109 : 1"
       inkscape:vp_y="0 : 1000 : 0"
       inkscape:vp_x="0 : 526.18109 : 1"
       sodipodi:type="inkscape:persp3d" />
  </defs>
  <sodipodi:namedview
     inkscape:window-height="979"
     inkscape:window-width="1400"
     inkscape:pageshadow="2"
     inkscape:pageopacity="0.0"
     guidetolerance="10.0"
     gridtolerance="10.0"
     objecttolerance="10.0"
     borderopacity="1.0"
     bordercolor="#666666"
     pagecolor="#ffffff"
     id="base"
     showgrid="false"
     inkscape:zoom="0.43487306"
     inkscape:cx="505.48879"
     inkscape:cy="619.80228"
     inkscape:window-x="-4"
     inkscape:window-y="-4"
     inkscape:current-layer="svg2474" />
  <g
     id="g5563">
    <rect
       y="0.24521701"
       x="0"
       height="986.49475"
       width="1145.1617"
       id="rect5291"
       style="fill:#ffffff;fill-opacity:1;stroke:none;stroke-opacity:1" />
    <g
       id="g5530">
      <g
         style="stroke:none;stroke-opacity:1"
         id="g4192"
         transform="matrix(2.3323706,0,0,2.3323706,291.65143,-55.896769)">
        <path
           sodipodi:nodetypes="csssssssssssssccssc"
           id="path2600"
           d="M 64,40.03125 C 63.649036,40.048312 63.289512,40.424792 62.71875,41.15625 C 61.672234,42.49741 61.753955,45.613498 63.15625,58.15625 C 65.680159,80.731234 67.08325,104.65292 67.3125,129.5 C 67.600306,160.69375 65.162209,308.16181 64.03125,328.5 C 61.848847,367.74647 62.956624,391.98712 67.375,402.25 C 69.193496,406.47394 68.347087,414.15179 72.07892,415.26752 C 76.13215,416.47934 76.169131,416.46597 79.86017,414.92377 C 85.826853,412.43073 94.981038,407.62058 92.0625,389 C 90.680283,380.18132 90.727665,360.34627 92.1875,337.75 C 93.402258,318.94721 93.204186,314.07441 90.03125,281 C 89.582763,276.325 89.608705,271.80141 90.0625,270.9375 C 90.516298,270.0736 92.642293,268.57238 94.8125,267.59375 C 96.982707,266.61512 99.216271,264.83872 99.75,263.65625 C 101.32765,260.16097 97.950671,138.5097 95.9375,126.21875 C 94.722693,109.27453 92.346483,92.56377 88.46875,76 C 85.221859,63.170441 75.015997,46.441492 68.65625,43.53125 C 67.477302,42.991759 65.9375,41.866758 65.25,41.03125 C 64.693222,40.354606 64.350964,40.014188 64,40.03125 z"
           style="fill:#e8e7e7;fill-opacity:1;stroke:none;stroke-opacity:1" />
        <path
           id="path3118"
           d="M 70.15625,271.75 C 68.541724,271.78089 68.365135,274.75472 66.84375,307.5 C 66.625609,312.19512 66.429336,316.63307 66.25,320.875 C 66.222205,321.56133 66.183015,322.3221 66.15625,323 C 66.043599,325.69991 65.938862,328.31663 65.84375,330.8125 C 65.697168,334.70457 65.573798,338.41916 65.46875,341.90625 C 65.374634,344.97855 65.277778,348.01146 65.21875,350.75 C 65.215599,350.89862 65.221804,351.07095 65.21875,351.21875 C 65.156538,354.19117 65.113425,356.94621 65.09375,359.5625 C 65.073926,362.19865 65.069761,364.68256 65.09375,367 C 65.105561,368.14096 65.133705,369.24102 65.15625,370.3125 C 65.156823,370.37928 65.155647,370.46477 65.15625,370.53125 C 65.162662,370.82504 65.14902,371.11745 65.15625,371.40625 C 65.249394,379.61195 65.591512,385.44015 66.15625,388.4375 C 66.46104,390.05518 66.713386,391.47539 66.96875,392.75 C 67.117149,393.51688 67.270436,394.26614 67.4375,394.96875 C 67.454344,395.05183 67.482973,395.13591 67.5,395.21875 C 67.601023,395.67295 67.681847,396.15373 67.78125,396.5625 C 67.900982,397.10493 68.028387,397.65165 68.15625,398.1875 C 68.278008,398.69776 68.508049,399.27788 68.78125,399.90625 C 68.807561,399.96677 68.816201,400.03236 68.84375,400.09375 C 71.137662,404.69876 68.394429,411.59695 73.030937,414.1801 C 76.257395,414.96892 79.655328,413.75584 82.4165,412.35748 C 85.080684,410.40939 92.73395,404.63838 91.28125,395 C 88.909411,379.26334 88.715155,366.24495 90.4375,342 C 92.000477,319.99843 91.984398,317.60732 90.40625,304.5 C 89.479155,296.8 88.432514,287.51271 88.09375,283.84375 C 88.085662,283.75615 88.070767,283.68074 88.0625,283.59375 C 87.767796,280.49294 87.369107,277.76206 87.09375,277 C 87.060515,276.90221 87.028414,276.84538 87,276.8125 C 86.995227,276.80914 86.974255,276.78481 86.96875,276.78125 C 86.862621,276.70768 86.55264,276.59926 86.125,276.4375 C 86.115307,276.43384 86.103577,276.40995 86.09375,276.40625 C 85.64346,276.23732 85.038757,276.04574 84.34375,275.8125 C 83.365637,275.48424 82.063517,275.07855 80.8125,274.6875 C 80.238201,274.50798 79.781242,274.33739 79.1875,274.15625 C 79.177433,274.15317 79.166319,274.15933 79.15625,274.15625 C 79.002768,274.10945 78.872496,274.07785 78.71875,274.03125 C 78.615649,273.9978 78.509398,273.97072 78.40625,273.9375 C 75.874819,273.12231 73.412029,272.40676 71.75,272.03125 C 71.184293,271.89103 70.751857,271.81499 70.5,271.78125 C 70.378896,271.76503 70.263885,271.74794 70.15625,271.75 z"
           style="fill:#929091;fill-opacity:1;stroke:none;stroke-opacity:1"
           sodipodi:nodetypes="cssssssssssscssssssscccsssssssssssssssscsc" />
      </g>
      <g
         style="stroke:none;stroke-opacity:1"
         id="g4180"
         transform="matrix(2.3323706,0,0,2.3323706,-565.44058,-53.385109)">
        <path
           sodipodi:nodetypes="ccssssssssscccsssc"
           id="path2578"
           d="M 324.79514,120.88889 C 313.31042,122.97027 302.79323,125.8279 291.10764,126.29514 C 276.89291,126.6822 260.7227,129.11182 257.29514,131.35764 C 249.76385,136.29233 249.08189,144.46467 254.79514,160.48264 C 262.77442,182.85379 264.95901,197.90163 266.88889,243.17014 C 267.88232,266.47267 267.48397,285.08811 264.85764,338.29514 C 262.3686,388.72058 259.3658,402.74765 271.02553,411.1939 C 275.59052,414.50077 283.19522,417.23199 285.74428,412.5689 C 288.38663,407.73517 295.7347,407.48631 292.82639,383.88889 C 291.52173,373.30312 292.14325,347.3997 293.95139,336.88889 C 295.45507,328.14797 295.45908,310.04487 293.95139,301.17014 C 293.27664,297.19839 292.63559,289.33118 292.54514,283.70139 L 292.38889,273.48264 L 296.76389,272.70139 C 299.16331,272.28354 307.7133,271.45429 315.76389,270.85764 C 326.18791,270.0851 330.82067,269.35098 331.88889,268.29514 C 333.64511,266.55929 333.88758,241.9137 332.63889,193.88889 C 331.38619,145.70997 328.72379,120.88889 324.79514,120.88889 z"
           style="fill:#e8e7e7;fill-opacity:1;stroke:none;stroke-opacity:1" />
        <path
           id="path3108"
           d="M 270.92014,269.70139 C 270.659,269.68187 270.47986,269.72977 270.42014,269.82639 C 270.3905,269.87435 270.36133,270.00786 270.32639,270.23264 C 270.26032,270.41558 270.14108,271.71153 270.01389,273.57639 C 269.98991,273.89642 269.97642,274.06193 269.95139,274.42014 C 269.94648,274.49631 269.95636,274.52959 269.95139,274.60764 C 269.36383,283.08414 268.49301,301.67128 267.73264,320.88889 C 267.73015,320.95174 267.73512,321.01353 267.73264,321.07639 C 266.76741,343.57964 265.88889,366.33595 265.88889,372.38889 C 265.88889,378.55622 264.65254,385.76587 265.19881,388.64638 C 263.31394,399.99205 266.16831,404.7938 275.00177,411.02138 C 277.29468,412.23017 278.6227,412.70448 280.09552,412.49013 C 280.13817,412.49083 280.17812,412.49013 280.22052,412.49013 C 280.23001,412.48851 280.24227,412.49181 280.25177,412.49013 C 282.64946,412.48022 284.65002,411.36283 286.09552,409.17763 C 286.10794,409.15885 286.11443,409.13407 286.12677,409.11513 C 286.3191,408.85481 286.47722,408.55097 286.62677,408.24013 C 286.7361,408.03244 286.83828,407.80644 286.93927,407.58388 C 286.94235,407.57491 286.93621,407.56164 286.93927,407.55263 C 287.14059,407.10635 287.33501,406.65168 287.50177,406.14638 C 288.43812,403.30921 293.69861,400.84713 292.26389,392.60764 C 289.97112,379.44042 289.9625,354.06551 292.23264,336.92014 C 294.29208,321.36599 294.29074,313.95625 292.26389,301.88889 C 291.38628,296.66389 290.33072,288.33889 289.88889,283.38889 C 289.87297,279.71079 289.76775,277.48608 289.20139,276.10764 C 289.19767,276.09859 289.20515,276.08537 289.20139,276.07639 C 289.11856,275.27391 288.99988,274.28641 288.98264,274.26389 C 288.93097,274.19637 286.67429,273.92878 283.98264,273.67014 C 283.96312,273.66826 283.9398,273.67211 283.92014,273.67014 C 283.60874,273.64022 283.26514,273.5981 282.92014,273.54514 C 282.90068,273.54212 282.87718,273.54822 282.85764,273.54514 C 282.50875,273.49052 282.13573,273.40122 281.76389,273.32639 C 281.74467,273.32252 281.72066,273.3303 281.70139,273.32639 C 280.92436,273.16828 280.13062,272.95814 279.32639,272.73264 C 279.31662,272.72992 279.30491,272.73537 279.29514,272.73264 C 278.49095,272.5064 277.68688,272.24932 276.95139,271.98264 C 276.94167,271.97913 276.92984,271.98615 276.92014,271.98264 C 276.19047,271.71826 275.54175,271.44677 274.98264,271.17014 C 274.96053,271.1592 274.94221,271.14973 274.92014,271.13889 C 274.31839,270.84117 273.83524,270.61854 273.35764,270.42014 C 273.24169,270.37327 273.1569,270.33788 273.04514,270.29514 C 272.67812,270.15035 272.36643,270.0321 272.07639,269.95139 C 272.05968,269.9463 272.03041,269.95634 272.01389,269.95139 C 271.9916,269.94542 271.97322,269.92572 271.95139,269.92014 C 271.53863,269.79908 271.18128,269.72091 270.92014,269.70139 z"
           style="fill:#929091;fill-opacity:1;stroke:none;stroke-opacity:1"
           sodipodi:nodetypes="csssssssscccssssssssssscssssssssssssssssssssc" />
      </g>
      <g
         style="stroke:none;stroke-opacity:1"
         id="g4196"
         transform="matrix(2.3323706,0,0,2.3323706,224.91123,-56.228432)">
        <path
           id="path2604"
           d="M 36.28125,30.96875 C 32.345636,30.880581 25.497989,37.073524 23,43.75 C 19.837707,52.201985 19.212657,64.343647 18.03125,143 C 16.680593,232.9247 15.166874,303.50413 13.96875,331.5 C 12.218759,372.39105 12.776305,386.10343 16.75,398.84375 C 18.635884,404.8902 16.10547,413.14754 20.773287,415.25378 C 27.273243,418.18671 34.695951,414.5272 35.960787,407.78503 C 36.31988,405.8709 44.538547,398.51041 43.65625,392.125 C 40.933634,372.42073 40.855027,369.89913 42.15625,349.90625 C 43.725131,325.80087 43.605531,315.66507 41.59375,301 C 40.726075,294.675 39.894025,285.53679 39.75,280.6875 L 39.5,271.875 L 42.8125,269.15625 L 46.15625,266.4375 L 45.53125,237.96875 C 45.21548,223.46117 44.578721,204.82292 44.058488,194.7279 C 44.017359,193.92978 43.976957,193.18506 43.9375,192.5 C 43.903633,191.912 43.869339,191.28745 43.834744,190.62996 C 43.793256,189.84146 43.751333,189.00558 43.709192,188.12851 C 43.694608,187.82498 39.384979,187.4323 43.66537,187.20337 C 43.950412,187.18813 43.916436,186.37019 43.625375,186.33652 C 39.138269,185.81756 44.093364,184.79865 43.554376,184.74598 C 37.895077,184.19292 43.898076,183.60555 43.503939,183.57658 C 38.262573,183.19134 43.924629,182.19828 43.444137,182.148 C 38.70413,181.65202 43.970021,180.40268 43.372676,180.38124 C 37.202733,180.15983 43.877764,178.70808 43.306492,178.68648 C 38.233223,178.49464 43.784302,177.10376 43.245938,177.08562 C 37.586943,176.89489 43.643857,175.79019 43.196677,175.74688 C 37.953765,175.23908 43.730381,174.01635 43.132725,173.95822 C 38.228455,173.48124 43.634163,172.35456 43.074112,172.26602 C 38.25355,171.50396 43.605382,170.56937 43.014125,170.47826 C 37.675804,169.65565 43.908451,167.61099 42.918374,167.49519 C 37.505293,166.8621 43.491681,165.63847 42.860239,165.59618 C 37.192726,165.22226 43.323436,164.1316 42.81441,164.04524 C 37.524651,163.14775 43.419326,162.14105 42.756659,162.01302 C 37.549676,161.00703 43.443052,159.83083 42.695194,159.73644 C 37.611684,159.09485 43.269207,157.93314 42.6464,157.82578 C 37.504423,156.93939 43.207385,156.07949 42.600984,155.94224 C 38.191184,154.94417 43.236882,153.96368 42.553064,153.80869 C 38.333999,152.85243 43.319387,151.42772 42.5,151.1875 C 38.010979,149.87147 43.517666,148.04337 42.428417,147.73474 C 37.813279,146.42709 43.391287,144.66799 42.349533,144.49949 C 37.718795,143.75048 43.908918,142.53875 42.287573,142.2509 C 37.465789,141.39486 43.113623,140.25976 42.22171,140.07992 C 37.511355,139.13015 42.791331,138.21213 42.155006,138.07435 C 37.320364,137.02756 42.932892,135.41282 42.047506,135.1914 C 37.655724,134.0931 42.871146,132.1436 41.900846,131.86734 C 37.68322,130.66653 41.824305,130.37124 41.786173,129.72578 C 41.76558,128.85697 42.527391,127.29732 41.720567,127.20642 C 37.594808,126.7416 42.409276,124.93637 41.646786,124.80852 C 37.752203,124.15549 42.46525,122.02284 41.54157,121.89046 C 36.324285,121.14273 42.154664,119.71684 41.452353,119.71794 C 36.831376,119.72519 42.119786,117.38333 41.342718,117.29234 C 36.952174,116.77822 42.121256,114.53309 41.202105,114.4143 C 37.540563,113.9411 41.862941,112.1081 41.078944,111.97405 C 37.543474,111.36953 41.675792,109.89207 40.973336,109.83321 C 37.079409,109.50692 41.554029,107.8742 40.879615,107.78405 C 38.865977,107.51489 43.028914,106.50685 40.798048,105.73471 C 38.270725,104.85996 41.30466,104.15379 40.739621,103.92902 C 37.692233,102.71677 41.767873,100.94122 40.67089,100.56177 C 37.884084,99.597799 40.653887,98.602306 40.65625,97.5625 C 37.34114,96.326934 41.488504,96.083284 40.466381,95.608884 C 37.291182,94.135172 41.161088,93.691088 40.348483,93.317925 C 38.029804,92.253146 40.916177,91.639341 40.268856,91.416571 C 37.347943,90.411365 40.909174,89.483158 40.192786,89.36046 C 37.518086,88.902358 40.721734,87.765266 40.131788,87.549951 C 37.095137,86.441652 40.091219,86.275134 40.070991,85.604232 C 39.89626,79.809038 39.725641,72.389903 39.59375,64.4375 C 39.290296,46.140649 38.681005,32.274754 38.125,31.71875 C 37.641812,31.235562 37.010067,30.985078 36.28125,30.96875 z"
           style="fill:#e8e7e7;fill-opacity:1;stroke:none;stroke-opacity:1"
           sodipodi:nodetypes="cssssssssscccccsssssssssssssssssssssssssssssssscsssssssssssscssssssssc" />
        <path
           sodipodi:nodetypes="cccsssccsssc"
           id="path3264"
           d="M 20.192574,412.08883 C 18.400941,408.59842 20.745012,404.40788 19.375411,401.03226 C 14.583585,386.45388 15.075539,370.14293 15.420891,355 C 16.640253,308.57691 18.129409,272.49816 18.856757,271.75704 C 19.257791,271.34842 22.603617,272.21138 26.291925,273.67474 C 29.980232,275.1381 33.32287,276.01046 33.720009,275.61332 C 34.74064,274.59269 32.363243,273.26712 26,271.30885 C 34.596861,273.69623 34.135965,268.65307 40.559273,308.5 C 41.809134,318.50963 41.863844,322.98796 40.889117,335.5 C 39.181555,357.41906 39.364521,379.70999 41.342616,390.75044 C 43.381966,402.13277 37.149907,400.75224 33.022155,410.37663 C 31.199873,414.62552 23.647986,415.98359 20.192574,412.08883 z"
           style="fill:#929091;stroke:none;stroke-opacity:1" />
      </g>
      <g
         style="stroke:none;stroke-opacity:1"
         id="g4188"
         transform="matrix(2.3323706,0,0,2.3323706,354.26532,-54.987658)">
        <path
           sodipodi:nodetypes="cssssssssssccc"
           id="path2580"
           d="M 130.1875,66.15625 C 128.15856,66.323844 126.50802,70.963799 124.125,83 C 118.71288,110.3357 118.13885,126.97916 117.875,266 C 117.64518,387.09105 117.6708,387.51212 119.78125,394.90625 C 122.27177,403.63197 118.776,410.36469 124.15585,413.46566 C 131.68424,417.80507 139.48545,415.74561 141.1871,408.96566 C 141.50595,407.69529 148.23848,399.53431 147,391.71875 C 144.92262,378.60922 144.7861,375.71861 145.5,354.5 C 146.72016,318.23417 146.6576,314.70898 144.03125,292.6875 C 141.86771,274.54668 141.71704,271.79293 143,271 C 144.6486,269.98111 157.99558,265.73242 165.21875,263.9375 C 172.68775,262.08148 172.67029,262.21682 170.125,242.6875 C 162.00162,179.93601 155.21648,125.02959 130.59375,66.1875 C 130.45476,66.159704 130.32276,66.145077 130.1875,66.15625 z"
           style="fill:#e8e7e7;fill-opacity:1;stroke:none;stroke-opacity:1" />
        <path
           id="path3260"
           d="M 121.4375,276.46875 C 121.2832,276.47398 121.16476,276.49149 121.125,276.53125 C 121.12153,276.53472 121.12848,276.55716 121.125,276.5625 C 121.12384,276.56428 121.09491,276.56051 121.09375,276.5625 C 120.76477,276.89316 120.46808,281.97876 120.4375,287.84375 C 120.43722,287.89723 120.43784,288.13133 120.4375,288.1875 C 120.05767,299.67109 119.73855,318.07458 119.59375,337 C 119.58944,337.56394 119.56647,338.12338 119.5625,338.6875 C 119.08127,362.81416 119.16307,377.48359 119.8125,381 C 119.87795,381.35437 119.98691,381.99344 120.0625,382.40625 C 120.22952,384.68169 120.41396,386.27459 120.65625,387 C 120.817,387.48125 121.01536,388.06057 121.1875,388.71875 C 121.20542,388.78727 121.23207,388.86761 121.25,388.9375 C 121.51228,390.4024 121.75562,391.7903 121.96875,393 C 122.14166,393.98141 122.35831,394.94844 122.59375,395.875 C 122.5962,395.88463 122.5913,395.89663 122.59375,395.90625 C 123.24682,400.34907 121.68678,407.27341 124.61087,410.79877 C 127.81251,413.9692 132.83037,415.69978 137.51712,411.70502 C 140.42476,408.79738 145.03101,400.74373 144.5,387 C 144.04762,375.29134 142.58367,356.87536 144.1875,335.375 C 145.25431,321.0739 145.17829,317.9706 143.625,307.875 C 143.21294,305.19685 142.763,302.11962 142.34375,299.15625 C 142.03422,296.51677 141.67035,293.84307 141.25,291.09375 C 141.24682,291.07298 141.25318,291.05203 141.25,291.03125 C 141.18072,290.47979 141.05318,289.57691 141,289.125 C 140.6417,286.08007 140.14453,283.25143 139.71875,281.875 C 139.71399,281.85962 139.69223,281.85877 139.6875,281.84375 L 139.5,280.6875 L 136.03125,279.78125 C 135.9661,279.76137 135.87894,279.73881 135.8125,279.71875 C 132.39954,278.68838 127.33334,277.44629 124.125,276.84375 C 122.87125,276.60829 121.90781,276.45281 121.4375,276.46875 z"
           style="fill:#929091;fill-opacity:1;stroke:none;stroke-opacity:1"
           sodipodi:nodetypes="csssscscscssssscccssscsssscccssc" />
      </g>
      <g
         style="stroke:none;stroke-opacity:1"
         id="g4184"
         transform="matrix(2.3323706,0,0,2.3323706,404.8694,-59.071312)">
        <path
           sodipodi:nodetypes="csssssssssssssssccc"
           id="path2598"
           d="M 200.71875,68.28125 C 200.31225,68.364405 199.94704,68.641845 199.5,69.09375 C 198.73596,69.86612 195.12137,79.05 191.46875,89.5 C 179.6182,123.40391 180.26514,120.39114 181.125,137.5 C 183.55747,185.89931 185.27074,314.12296 183.53125,316.9375 C 183.24305,317.40383 182.97929,332.32486 182.9375,350.125 C 182.87921,374.94934 183.20312,384.26692 184.34375,390.09375 C 186.97436,403.53201 183.74882,411.75564 191.04837,415.36883 C 193.41132,416.53847 196.04294,417.4934 196.92337,417.49383 C 200.53267,417.49561 204.97416,415.11293 206.36087,412.43133 C 208.27101,408.73754 215.39547,403.75195 213.28125,394.8125 C 211.77567,388.44652 211.58456,382.56831 211.78125,349.5 C 211.97842,316.35219 211.7214,309.39313 209.9375,295 C 206.7986,269.67432 206.49014,271.79096 214,268 C 217.3,266.33417 219.99164,264.87959 220,264.75 C 220.00835,264.62042 220.65668,254.825 221.4375,243 C 222.90182,220.82395 224.63583,184.12631 225.375,159.40625 C 224.28125,136.96166 222.32467,82.774474 203.6875,69.53125 C 202.18042,68.550206 201.39625,68.142658 200.71875,68.28125 z"
           style="fill:#e8e7e7;fill-opacity:1;stroke:none;stroke-opacity:1" />
        <path
           sodipodi:nodetypes="cssssccsssssc"
           id="path3258"
           d="M 192.33185,413.61966 C 185.91814,410.27545 189.36804,403.3228 187.96739,394.57393 C 187.52062,391.78327 186.60656,387.475 185.93615,385 C 184.45419,379.52895 184.52484,339.60416 186.08393,301.48752 C 186.66856,287.19438 187.10581,274.7125 187.05559,273.75 C 187.00537,272.7875 186.9197,270.9875 186.8652,269.75 C 194.75628,265.02833 193.31636,267.0057 204.07487,268 C 206.53571,268 207.0819,268.34418 206.60272,269.5929 C 204.96405,273.86321 205.07231,276.84928 207.46396,293.34768 C 209.92028,310.29228 210.02802,312.8593 209.79163,348.80732 C 209.57728,381.40207 209.77746,387.582 211.27171,394.5 C 213.64553,405.49026 206.34364,409.77195 203.37507,412.74051 C 200.53133,415.58426 196.68669,415.89033 192.33185,413.61966 z"
           style="fill:#929091;fill-opacity:1;stroke:none;stroke-opacity:1" />
      </g>
      <g
         style="stroke:none;stroke-opacity:1"
         id="g4176"
         transform="matrix(2.3323706,0,0,2.3323706,136.60064,-49.668733)">
        <path
           id="path2584"
           d="M 378.93055,227.65278 C 378.06997,227.72902 377.36148,228.65508 376.8993,230.49653 C 376.52524,231.9869 376.5106,257.29941 376.86805,286.74653 C 377.29331,321.77743 377.1557,344.25343 376.4618,351.77778 C 375.08599,366.69589 375.08527,388.83375 376.4618,395.68403 C 377.95098,403.09475 377.28793,409.4443 380.87283,411.66651 C 384.19932,413.72853 390.6686,414.7271 390.74783,410.66651 C 390.81361,407.1459 392.21222,405.47564 395.253,400.13457 C 392.80389,382.54515 394.40666,373.86726 395.9618,361.24653 C 397.935,345.23318 397.94358,338.02826 396.05555,325.77778 C 394.34162,314.65691 394.14906,307.14704 395.55555,306.27778 C 396.92134,305.43368 396.79981,299.76938 395.05555,283.27778 C 393.0885,264.67984 390.94007,253.22043 387.36805,242.09028 C 384.37292,232.75764 381.12982,227.45795 378.93055,227.65278 z"
           style="fill:#e8e7e7;fill-opacity:1;stroke:none;stroke-opacity:1"
           sodipodi:nodetypes="csssssscsssssc" />
        <path
           id="path3388"
           d="M 383.05555,312.43403 C 381.20795,312.53272 380.93006,313.16432 380.4618,315.27778 C 380.09621,316.92778 379.73494,323.00278 379.6493,328.77778 C 379.56367,334.55278 378.86122,347.55242 378.11805,357.65278 C 375.91968,387.53145 377.27094,402.77019 381.31719,409.36466 C 386.47233,413.86389 389.95593,409.00167 389.81719,404.14591 C 389.77681,402.50875 393.94354,400.36769 393.6493,397.93403 C 393.21841,394.37023 392.90439,391.72784 392.6493,389.34028 C 392.29061,383.11945 392.32648,376.18539 392.7118,369.84028 C 392.7222,369.66902 392.73211,369.51062 392.74305,369.34028 C 392.75008,369.25905 392.76715,369.14111 392.7743,369.05903 C 392.93138,367.2566 393.12079,365.14276 393.3368,362.87153 C 393.41941,362.17524 393.493,361.43732 393.5868,360.77778 C 393.95345,358.19964 394.19877,355.27878 394.36805,352.21528 C 394.38396,352.05099 394.38322,351.944 394.3993,351.77778 C 394.94929,346.09376 394.95487,340.63108 394.43055,335.34028 C 393.97906,324.74864 392.65968,315.47567 390.80555,313.62153 C 390.28758,313.10356 387.89749,312.60911 385.49305,312.49653 C 384.46646,312.44846 383.67142,312.40113 383.05555,312.43403 z"
           style="fill:#929091;fill-opacity:1;stroke:none;stroke-opacity:1"
           sodipodi:nodetypes="csssccscssscscscssc" />
      </g>
      <text
         xml:space="preserve"
         style="font-size:34.98555755999999700px;font-style:normal;font-variant:normal;font-weight:normal;font-stretch:normal;text-align:start;line-height:100%;writing-mode:lr-tb;text-anchor:start;fill:#000000;fill-opacity:1;stroke:#000000;stroke-width:1px;stroke-linecap:butt;stroke-linejoin:miter;stroke-opacity:1;font-family:Book Antiqua;-inkscape-font-specification:Book Antiqua"
         x="240.69502"
         y="953.78406"
         id="text4306"
         sodipodi:linespacing="100%"><tspan
           sodipodi:role="line"
           id="tspan4308"
           x="240.69502"
           y="953.78406"
           style="-inkscape-font-specification:Bookman Old Style Light;font-family:Bookman Old Style;font-weight:300;font-style:normal;font-stretch:normal;font-variant:normal;font-size:34.98555755999999700px;text-anchor:start;text-align:start;writing-mode:lr;line-height:100%;stroke:#000000;stroke-opacity:1">Bread</tspan></text>
      <text
         xml:space="preserve"
         style="font-size:34.98555755999999700px;font-style:normal;font-variant:normal;font-weight:normal;font-stretch:normal;text-align:start;line-height:100%;writing-mode:lr-tb;text-anchor:start;fill:#000000;fill-opacity:1;stroke:#000000;stroke-width:1px;stroke-linecap:butt;stroke-linejoin:miter;stroke-opacity:1;font-family:Book Antiqua;-inkscape-font-specification:Book Antiqua"
         x="412.1402"
         y="952.53699"
         id="text4310"
         sodipodi:linespacing="100%"><tspan
           sodipodi:role="line"
           id="tspan4312"
           x="412.1402"
           y="952.53699"
           style="-inkscape-font-specification:Bookman Old Style Light;font-family:Bookman Old Style;font-weight:300;font-style:normal;font-stretch:normal;font-variant:normal;font-size:34.98555755999999700px;text-anchor:start;text-align:start;writing-mode:lr;line-height:100%;stroke:#000000;stroke-opacity:1">Boning</tspan></text>
      <text
         xml:space="preserve"
         style="font-size:34.98555755999999700px;font-style:normal;font-variant:normal;font-weight:normal;font-stretch:normal;text-align:start;line-height:100%;writing-mode:lr-tb;text-anchor:start;fill:#000000;fill-opacity:1;stroke:#000000;stroke-width:1px;stroke-linecap:butt;stroke-linejoin:miter;stroke-opacity:1;font-family:Book Antiqua;-inkscape-font-specification:Book Antiqua"
         x="616.02905"
         y="953.80115"
         id="text4314"
         sodipodi:linespacing="100%"><tspan
           sodipodi:role="line"
           id="tspan4316"
           x="616.02905"
           y="953.80115"
           style="-inkscape-font-specification:Bookman Old Style Light;font-family:Bookman Old Style;font-weight:300;font-style:normal;font-stretch:normal;font-variant:normal;font-size:34.98555755999999700px;text-anchor:start;text-align:start;writing-mode:lr;line-height:100%;stroke:#000000;stroke-opacity:1">Chef's</tspan></text>
      <text
         xml:space="preserve"
         style="font-size:34.98555756px;font-style:normal;font-variant:normal;font-weight:normal;font-stretch:normal;text-align:start;line-height:100%;writing-mode:lr-tb;text-anchor:start;fill:#000000;fill-opacity:1;stroke:#000000;stroke-width:1px;stroke-linecap:butt;stroke-linejoin:miter;stroke-opacity:1;font-family:Book Antiqua;-inkscape-font-specification:Book Antiqua"
         x="801.7384"
         y="952.86157"
         id="text4318"
         sodipodi:linespacing="100%"><tspan
           sodipodi:role="line"
           id="tspan4320"
           x="801.7384"
           y="952.86157"
           style="font-size:34.98555756px;font-style:normal;font-variant:normal;font-weight:300;font-stretch:normal;text-align:start;line-height:100%;writing-mode:lr-tb;text-anchor:start;stroke:#000000;stroke-opacity:1;font-family:Bookman Old Style;-inkscape-font-specification:Bookman Old Style Light">Carving</tspan></text>
      <text
         xml:space="preserve"
         style="font-size:34.98555755999999700px;font-style:normal;font-variant:normal;font-weight:normal;font-stretch:normal;text-align:start;line-height:100%;writing-mode:lr-tb;text-anchor:start;fill:#000000;fill-opacity:1;stroke:#000000;stroke-width:1px;stroke-linecap:butt;stroke-linejoin:miter;stroke-opacity:1;font-family:Book Antiqua;-inkscape-font-specification:Book Antiqua"
         x="39.283585"
         y="953.78406"
         id="text4322"
         sodipodi:linespacing="100%"><tspan
           sodipodi:role="line"
           id="tspan4324"
           x="39.283585"
           y="953.78406"
           style="-inkscape-font-specification:Bookman Old Style Light;font-family:Bookman Old Style;font-weight:300;font-style:normal;font-stretch:normal;font-variant:normal;font-size:34.98555755999999700px;text-anchor:start;text-align:start;writing-mode:lr;line-height:100%;stroke:#000000;stroke-opacity:1">Cleaver</tspan></text>
      <text
         xml:space="preserve"
         style="font-size:34.98555756px;font-style:normal;font-variant:normal;font-weight:normal;font-stretch:normal;text-align:start;line-height:100%;writing-mode:lr-tb;text-anchor:start;fill:#000000;fill-opacity:1;stroke:#000000;stroke-width:1px;stroke-linecap:butt;stroke-linejoin:miter;stroke-opacity:1;font-family:Book Antiqua;-inkscape-font-specification:Book Antiqua"
         x="978.50647"
         y="952.60535"
         id="text4326"
         sodipodi:linespacing="100%"><tspan
           sodipodi:role="line"
           id="tspan4328"
           x="978.50647"
           y="952.60535"
           style="font-size:34.98555756px;font-style:normal;font-variant:normal;font-weight:300;font-stretch:normal;text-align:start;line-height:100%;writing-mode:lr-tb;text-anchor:start;stroke:#000000;stroke-opacity:1;font-family:Bookman Old Style;-inkscape-font-specification:Bookman Old Style Light">Paring</tspan><tspan
           sodipodi:role="line"
           x="978.50647"
           y="987.59088"
           id="tspan4330"
           style="font-size:34.98555756px;font-style:normal;font-variant:normal;font-weight:300;font-stretch:normal;text-align:start;line-height:100%;writing-mode:lr-tb;text-anchor:start;stroke:#000000;stroke-opacity:1;font-family:Bookman Old Style;-inkscape-font-specification:Bookman Old Style Light" /></text>
    </g>
  </g>
</svg>
