<?xml version="1.0" encoding="UTF-8"?>
<svg width="752pt" height="752pt" version="1.1" viewBox="0 0 752 752" xmlns="http://www.w3.org/2000/svg">
 <defs>
  <clipPath id="a">
   <path d="m141 139.21h470v473.58h-470z"/>
  </clipPath>
 </defs>
 <g clip-path="url(#a)">
  <path d="m202.36 392.68c-15.969 0.003907-31.289 6.3164-42.629 17.559-11.34 11.242-17.781 26.508-17.926 42.477-0.14062 15.969 6.0234 31.348 17.16 42.789 11.137 11.445 26.34 18.031 42.309 18.324 15.965 0.29297 31.398-5.7305 42.949-16.762 11.547-11.027 18.273-26.168 18.715-42.133l39.465-24.766 49.332 30.586v13.914h-59.199c-5.4492 0-9.8633 4.418-9.8633 9.8672v83.863c0.023437 11.699 4.6562 22.918 12.891 31.227s19.414 13.043 31.113 13.172h170.19c11.766-0.027344 23.043-4.7148 31.367-13.035 8.3203-8.3203 13.004-19.598 13.031-31.363v-36.012l19.043-2.5664c4.1133-0.57031 7.4297-3.6602 8.293-7.7266 0.86328-4.0664-0.91797-8.2344-4.4453-10.426l-22.891-14.309v-180.55h59.199c2.6133 0 5.125-1.0391 6.9766-2.8906 1.8477-1.8516 2.8867-4.3594 2.8867-6.9766v-123.33c-0.023438-11.766-4.7109-23.047-13.031-31.367-8.3203-8.3203-19.598-13.004-31.367-13.031h-170.19c-11.766 0.027343-23.047 4.7109-31.367 13.031-8.3203 8.3203-13.004 19.602-13.031 31.367v134.18l-49.332 30.586-39.465-24.766v0.003906c-0.41797-16.023-7.1562-31.23-18.75-42.301-11.59-11.07-27.094-17.105-43.117-16.785-16.027 0.32031-31.273 6.9688-42.414 18.492-11.141 11.523-17.27 26.988-17.047 43.016 0.22266 16.027 6.7773 31.312 18.234 42.523 11.453 11.211 26.883 17.434 42.91 17.309 7.6758 0 15.277-1.4727 22.395-4.3398l12.727 7.8945-12.727 7.8945v-0.003906c-7.0977-2.9688-14.699-4.543-22.395-4.6367zm319.17 175.72c0 6.5391-2.5977 12.816-7.2227 17.441s-10.898 7.2227-17.441 7.2227h-132.9c4.8906-7.2969 7.5-15.883 7.5-24.664v-95.605l105.86 66.105c1.5703 0.97266 3.3828 1.4844 5.2305 1.4805h1.3828l37.59-5.1289zm-150.06-384.79c-0.003906-6.4727 2.543-12.688 7.082-17.305 4.543-4.6133 10.715-7.2578 17.188-7.3594 6.5352 0.023438 12.793 2.6328 17.414 7.25 4.6172 4.6211 7.2266 10.879 7.25 17.414v123.33c0 2.6172 1.0391 5.125 2.8906 6.9766 1.8516 1.8516 4.3594 2.8906 6.9766 2.8906h90.867v59.199h-14.801v19.734h14.801v88.797l-143.06-88.797 0.003907-19.738h-7.0039zm-22.199 217.06 181.34 113.46-46.074 6.1172-163.19-102.02zm-118.39-39.465h-0.003906c-3.0508-1.7617-6.8125-1.7617-9.8633 0-10.641 5.457-23.137 5.9805-34.195 1.4297-11.059-4.5508-19.566-13.719-23.281-25.086-3.7109-11.367-2.2578-23.793 3.9805-33.992 6.2344-10.203 16.633-17.16 28.441-19.035 11.809-1.875 23.848 1.5195 32.941 9.2852 9.0898 7.7695 14.32 19.133 14.312 31.09v3.1562c-0.29688 3.6875 1.4922 7.2266 4.6367 9.1758l36.406 22.691-28.02 17.465z"/>
 </g>
 <path d="m388.34 376h19.734v19.734h-19.734z"/>
 <path d="m417.93 376h19.734v19.734h-19.734z"/>
 <path d="m447.53 376h19.734v19.734h-19.734z"/>
 <path d="m477.13 376h19.734v19.734h-19.734z"/>
</svg>
