<?xml version="1.0" encoding="UTF-8"?>
<svg width="752pt" height="752pt" version="1.1" viewBox="0 0 752 752" xmlns="http://www.w3.org/2000/svg">
 <path d="m519.81 202.85h-287.62c-26.047 0-47.359 21.312-47.359 47.359v251.59c0 26.047 21.312 47.359 47.359 47.359h287.62c26.047 0 47.359-21.312 47.359-47.359v-251.59c0-26.047-21.312-47.355-47.359-47.355zm-49.094 22.789c9.8086 0 17.758 7.9531 17.758 17.758 0 9.8086-7.9531 17.758-17.758 17.758-9.8086 0-17.758-7.9531-17.758-17.758-0.003907-9.8086 7.9492-17.758 17.758-17.758zm63.676 58.195v184.33h-149.57v-184.33zm-111.04-58.195c9.8086 0 17.758 7.9531 17.758 17.758 0 9.8086-7.9531 17.758-17.758 17.758-9.8086 0-17.758-7.9531-17.758-17.758 0-9.8086 7.9492-17.758 17.758-17.758zm-47.359 0c9.8086 0 17.758 7.9531 17.758 17.758 0 9.8086-7.9531 17.758-17.758 17.758-9.8086 0-17.758-7.9531-17.758-17.758 0-9.8086 7.9531-17.758 17.758-17.758zm-8.8242 58.195v184.33h-149.57v-184.33zm-38.531-58.195c9.8086 0 17.758 7.9531 17.758 17.758 0 9.8086-7.9531 17.758-17.758 17.758-9.8086 0-17.758-7.9531-17.758-17.758-0.003907-9.8086 7.9492-17.758 17.758-17.758zm-47.359 0c9.8086 0 17.758 7.9531 17.758 17.758 0 9.8086-7.9531 17.758-17.758 17.758-9.8086 0-17.758-7.9531-17.758-17.758 0-9.8086 7.9492-17.758 17.758-17.758zm-47.359 0c9.8086 0 17.758 7.9531 17.758 17.758 0 9.8086-7.9531 17.758-17.758 17.758-9.8086 0-17.758-7.9531-17.758-17.758 0-9.8086 7.9531-17.758 17.758-17.758zm0 300.72c-9.8086 0-17.758-7.9531-17.758-17.758 0-9.8086 7.9531-17.758 17.758-17.758 9.8086 0 17.758 7.9531 17.758 17.758 0.003906 9.8047-7.9492 17.758-17.758 17.758zm47.359 0c-9.8086 0-17.758-7.9531-17.758-17.758 0-9.8086 7.9531-17.758 17.758-17.758 9.8086 0 17.758 7.9531 17.758 17.758 0 9.8047-7.9492 17.758-17.758 17.758zm47.359 0c-9.8086 0-17.758-7.9531-17.758-17.758 0-9.8086 7.9531-17.758 17.758-17.758 9.8086 0 17.758 7.9531 17.758 17.758 0 9.8047-7.9492 17.758-17.758 17.758zm47.355 0c-9.8086 0-17.758-7.9531-17.758-17.758 0-9.8086 7.9531-17.758 17.758-17.758 9.8086 0 17.758 7.9531 17.758 17.758 0.003907 9.8047-7.9492 17.758-17.758 17.758zm47.359 0c-9.8086 0-17.758-7.9531-17.758-17.758 0-9.8086 7.9531-17.758 17.758-17.758 9.8086 0 17.758 7.9531 17.758 17.758 0 9.8047-7.9492 17.758-17.758 17.758zm47.359 0c-9.8086 0-17.758-7.9531-17.758-17.758 0-9.8086 7.9531-17.758 17.758-17.758 9.8086 0 17.758 7.9531 17.758 17.758 0 9.8047-7.9492 17.758-17.758 17.758zm47.355 0c-9.8086 0-17.758-7.9531-17.758-17.758 0-9.8086 7.9531-17.758 17.758-17.758 9.8086 0 17.758 7.9531 17.758 17.758 0.003907 9.8047-7.9492 17.758-17.758 17.758zm0-265.21c-9.8086 0-17.758-7.9531-17.758-17.758 0-9.8086 7.9531-17.758 17.758-17.758 9.8086 0 17.758 7.9531 17.758 17.758 0.003907 9.8086-7.9492 17.758-17.758 17.758z"/>
</svg>
