<?xml version="1.0" encoding="UTF-8"?>
<svg width="752pt" height="752pt" version="1.1" viewBox="0 0 752 752" xmlns="http://www.w3.org/2000/svg">
 <g>
  <path d="m465.51 286.5-12.785 14.207 85.242 75.297-85.246 75.301 12.785 14.207 89.039-79.086c3.0547-2.6992 4.8086-6.5781 4.8086-10.656s-1.7539-7.9609-4.8086-10.656z"/>
  <path d="m286.5 465.51 12.785-14.207-85.246-75.301 85.246-75.301-12.785-14.207-89.035 79.09c-3.0586 2.6992-4.8086 6.5781-4.8086 10.656s1.75 7.957 4.8086 10.656z"/>
  <path d="m410.57 207.88c-2.5195-0.55469-5.1523-0.0625-7.2969 1.3672-2.1445 1.4336-3.6172 3.6758-4.0703 6.2109l-65.355 317.3c-0.55469 2.5156-0.0625 5.1523 1.3672 7.2969 1.4336 2.1445 3.6758 3.6133 6.2109 4.0664h1.8945c4.5742 0.09375 8.5586-3.0938 9.4727-7.5742l65.352-317.3c0.55859-2.5156 0.0625-5.1523-1.3672-7.2969s-3.6719-3.6133-6.207-4.0703z"/>
 </g>
</svg>
