<?xml version="1.0" encoding="UTF-8"?>
<svg width="752pt" height="752pt" version="1.1" viewBox="0 0 752 752" xmlns="http://www.w3.org/2000/svg">
 <path transform="matrix(4.7358 0 0 4.7358 139.21 139.21)" d="m18.96 11.204v77.592h62.08v-64.253l-13.34-13.339z" fill="none" stroke="#000" stroke-linejoin="round" stroke-miterlimit="10" stroke-width="4"/>
 <path transform="matrix(4.7358 0 0 4.7358 139.21 139.21)" d="m67.7 11.204 13.34 13.339h-13.34z" fill="none" stroke="#000" stroke-linejoin="round" stroke-miterlimit="10" stroke-width="4"/>
 <path d="m290.07 433.03h15.836v-98.246h-15.836v-14.758h49.844v14.758h-16.008v97.523h44.262v-20.512h15.836v35.266l-93.934 0.003906z"/>
 <path d="m398.05 433.57h13.672v-60.098c0-2.6992-1.4336-3.9609-3.9609-3.9609h-11.332v-13.496h20.508c7.918 0 11.703 3.2383 11.703 10.617v5.7578c0 3.5977-0.35938 6.2969-0.35938 6.2969h0.35938c4.1328-13.316 14.754-23.75 28.785-23.75 2.3398 0 4.5039 0.35938 4.5039 0.35938v17.273s-2.1641-0.53906-5.0391-0.53906c-19.438 0-27.715 19.617-27.715 37.426v24.109h13.496v13.496h-44.621z"/>
</svg>
