<?xml version="1.0" encoding="UTF-8"?>
<svg width="752pt" height="752pt" version="1.1" viewBox="0 0 752 752" xmlns="http://www.w3.org/2000/svg">
 <g>
  <path d="m531.39 405.6v-158.43l-93.16-93.16h-195.43c-5.8906 0-11.535 2.3359-15.699 6.5-4.1641 4.1641-6.5 9.8086-6.5 15.699v229.39c-5.8906 0-11.535 2.3359-15.699 6.5-4.1641 4.1641-6.5 9.8086-6.5 15.699v118.39c0 5.8867 2.3359 11.535 6.5 15.695 4.1641 4.1641 9.8086 6.5039 15.699 6.5039v7.3984c0 5.8867 2.3359 11.535 6.5 15.699 4.1641 4.1602 9.8086 6.5 15.699 6.5h266.39c5.8867 0 11.535-2.3398 15.699-6.5 4.1602-4.1641 6.5-9.8125 6.5-15.699v-7.3984c5.8867 0 11.535-2.3398 15.699-6.5039 4.1602-4.1602 6.5-9.8086 6.5-15.695v-118.39c0-5.8906-2.3398-11.535-6.5-15.699-4.1641-4.1641-9.8125-6.5-15.699-6.5zm-88.797-226.36 63.566 63.566h-63.566zm-207.19-3.0312c0-4.0898 3.3125-7.4023 7.4023-7.4023h184.99v88.797h88.797v148h-281.19zm281.19 399.58c0 1.9648-0.78125 3.8438-2.168 5.2344-1.3906 1.3867-3.2695 2.1641-5.2344 2.1641h-266.39c-4.0898 0-7.4023-3.3125-7.4023-7.3984v-7.3984h281.19zm22.199-29.598h-0.003906c0 1.9609-0.77734 3.8438-2.1641 5.2305-1.3906 1.3906-3.2695 2.168-5.2344 2.168h-310.79c-4.0898 0-7.4023-3.3125-7.4023-7.3984v-118.39c0-4.0898 3.3125-7.4023 7.4023-7.4023h310.79c1.9648 0 3.8438 0.78125 5.2344 2.168 1.3867 1.3867 2.1641 3.2695 2.1641 5.2344z"/>
  <path d="m272.41 331.6h207.19c4.0859 0 7.3984-3.3125 7.3984-7.3984s-3.3125-7.3984-7.3984-7.3984h-207.19c-4.0859 0-7.3984 3.3125-7.3984 7.3984s3.3125 7.3984 7.3984 7.3984z"/>
  <path d="m479.6 361.2h-207.19c-4.0859 0-7.3984 3.3125-7.3984 7.3984 0 4.0859 3.3125 7.3984 7.3984 7.3984h207.19c4.0859 0 7.3984-3.3125 7.3984-7.3984 0-4.0859-3.3125-7.3984-7.3984-7.3984z"/>
  <path d="m331.6 487.96c-2.7734-2.2812-5.832-4.1953-9.1016-5.6953l-9.1016-4.0703c-2.4453-1.0703-4.7734-2.3828-6.9531-3.9219-1.7344-1.0859-2.7969-2.9844-2.8125-5.0312 0.0625-1.9961 1.082-3.8398 2.7383-4.957 2.7422-1.6992 5.9648-2.4492 9.1758-2.1484 2.043-0.042968 4.082 0.17969 6.0664 0.66797 1.3828 0.44141 2.7422 0.96094 4.0703 1.5547l3.1094 1.5547v-0.003906c0.9375 0.48047 1.9766 0.73438 3.0312 0.74219 1.2031 0.015624 2.3789-0.375 3.332-1.1094 0.97266-0.67578 1.7812-1.5625 2.3672-2.5898 0.58984-1.0117 1.0156-2.1133 1.2578-3.2578 0.26562-0.91406 0.41406-1.8594 0.44531-2.8125 0.035157-2.1992-1.0156-4.2773-2.8125-5.5469-2.0039-1.4688-4.2617-2.5469-6.6602-3.1836-2.5703-0.6875-5.1953-1.1602-7.8438-1.4062-2.6641 0-4.8086-0.37109-6.3633-0.37109-3.7461-0.015625-7.4766 0.45703-11.102 1.4062-3.4922 0.81641-6.8047 2.2734-9.7656 4.293-2.875 1.8789-5.2578 4.4141-6.957 7.3984-1.8789 3.4727-2.7969 7.3789-2.6641 11.324-0.42578 4.0938 0.32031 8.2227 2.1445 11.914 1.9219 3.0781 4.4375 5.7461 7.4023 7.8398 2.7812 2.1992 5.8398 4.0156 9.1016 5.4023l9.1016 4.293c2.4766 1.2461 4.8086 2.7578 6.957 4.5156 1.793 1.5 2.8242 3.7266 2.8086 6.0664 0.019531 1.2852-0.33984 2.5469-1.0352 3.625-0.70312 0.99609-1.6094 1.8281-2.6641 2.4414-1.1719 0.65234-2.4492 1.1055-3.7734 1.332-1.3359 0.29297-2.6992 0.44141-4.0703 0.44531-2.543 0.13672-5.082-0.34766-7.3984-1.4062-1.8047-0.82812-3.5156-1.8438-5.1055-3.0352l-3.9219-3.0312c-1.1602-0.85547-2.5586-1.3242-3.9961-1.332-1.125-0.023437-2.2227 0.34375-3.1094 1.0352-1 0.65625-1.875 1.4805-2.5898 2.4414-0.73828 0.98438-1.3125 2.0859-1.6992 3.2578-0.42969 1.0312-0.65625 2.1367-0.66797 3.2539 0.042969 2.125 0.82812 4.1641 2.2188 5.7734 1.7461 2.0234 3.8516 3.707 6.2188 4.957 2.9023 1.5273 5.9844 2.6953 9.1758 3.4766 3.6367 0.84375 7.3633 1.2695 11.098 1.2578 4.0078 0.027344 8-0.54688 11.84-1.7031 3.457-1.0391 6.6719-2.75 9.4727-5.0312 2.7344-2.2461 4.9336-5.0781 6.4375-8.2852 1.5352-3.6016 2.293-7.4844 2.2188-11.398 0.14453-4.3398-0.82422-8.6445-2.8125-12.504-1.7305-3.207-4.0391-6.0664-6.8086-8.4375z"/>
  <path d="m399.24 453.4c-2.7148-2.2773-5.8984-3.918-9.3242-4.8086-3.7578-1.0391-7.6445-1.5391-11.543-1.4805-3.875-0.058593-7.7383 0.44141-11.473 1.4805-3.3945 0.90625-6.5547 2.5469-9.25 4.8086-2.7188 2.3906-4.8477 5.3789-6.2148 8.7305-1.5898 4.1797-2.3438 8.6289-2.2188 13.098v31.523c-0.070313 3.9883 0.50391 7.9609 1.7031 11.766 1.0547 3.0391 2.7148 5.8359 4.8828 8.2148 2.0938 2.2227 4.6094 4.0078 7.3984 5.2539 2.9844 1.3203 6.1523 2.168 9.3984 2.5156v6.8828-0.003907c-0.11719 1.6328 0.53906 3.2227 1.7773 4.293 2.2383 1.9805 5.6016 1.9805 7.8438 0 1.2344-1.0703 1.8945-2.6602 1.7734-4.293v-6.8828 0.003906c3.2695-0.34766 6.4648-1.1953 9.4727-2.5156 5.7227-2.6328 10.109-7.5039 12.137-13.469 1.2539-3.793 1.8555-7.7695 1.7734-11.766v-31.523c0.30859-4.4414-0.29688-8.8984-1.7734-13.098-1.3711-3.3906-3.5586-6.3867-6.3633-8.7305zm-10.137 53.352h-0.003906c0.10156 2.3438-0.35547 4.6758-1.332 6.8086-0.78125 1.668-2.0781 3.043-3.6992 3.9219v-5.2539c0.15625-1.6367-0.50781-3.2461-1.7734-4.293-2.3164-1.7773-5.5312-1.7773-7.8438 0-1.2695 1.0469-1.9336 2.6562-1.7773 4.293v5.2539c-3.5234-2.3711-5.4102-6.5195-4.8828-10.73v-31.523c-0.26562-3.2578 0.74219-6.4922 2.8125-9.0273 2.0703-2.0078 4.8867-3.0547 7.7695-2.8867 2.9023-0.17188 5.7422 0.875 7.8438 2.8867 2.1211 2.5078 3.1602 5.7539 2.8828 9.0273z"/>
  <path d="m465.32 517.93h-27.156v-65.262c0.03125-1.8945-1.1211-3.6094-2.8867-4.293-4.1016-1.6758-8.6992-1.6758-12.801 0-1.7695 0.68359-2.9219 2.3984-2.8867 4.293v75.77c-0.078126 1.8008 0.90625 3.4805 2.5156 4.293 1.6914 0.95703 3.6094 1.4414 5.5508 1.4062h37.664c1.7422 0.066407 3.3477-0.92969 4.0703-2.5156 0.84766-1.7266 1.2773-3.625 1.2578-5.5508 0.011719-1.9453-0.41797-3.8672-1.2578-5.6211-0.73828-1.5742-2.3359-2.5625-4.0703-2.5195z"/>
 </g>
</svg>
